<svg version="1.0" xmlns="http://www.w3.org/2000/svg"
 width="900.000000pt" height="900.000000pt" viewBox="0 0 900.000000 900.000000"
 preserveAspectRatio="xMidYMid meet">
<g transform="translate(0.000000,900.000000) scale(0.100000,-0.100000)"
fill="#d6d6e3" stroke="none">
<path d="M4110 7899 c-103 -9 -270 -33 -365 -53 -134 -29 -200 -44 -230 -54
-16 -5 -57 -17 -90 -27 -33 -9 -69 -20 -80 -25 -11 -4 -60 -22 -110 -40 -49
-18 -110 -41 -135 -52 -25 -11 -61 -26 -80 -35 -263 -113 -577 -314 -819 -522
-94 -80 -286 -272 -367 -366 -115 -133 -280 -363 -333 -463 -8 -15 -17 -29
-20 -32 -16 -13 -152 -283 -194 -385 -21 -49 -42 -98 -47 -107 -6 -10 -10 -23
-10 -29 0 -6 -6 -25 -14 -42 -23 -53 -50 -136 -96 -302 -30 -104 -51 -210 -75
-380 -63 -430 -34 -963 75 -1355 38 -139 52 -187 59 -200 5 -9 12 -30 16 -49
4 -18 13 -44 21 -59 8 -15 14 -33 14 -40 0 -7 4 -20 10 -30 5 -9 19 -39 30
-67 35 -82 36 -86 91 -200 52 -108 154 -285 227 -395 151 -226 395 -504 582
-661 35 -30 71 -60 78 -66 7 -7 41 -34 75 -60 34 -26 67 -52 74 -58 26 -21 41
-32 153 -106 63 -42 122 -79 130 -83 8 -3 35 -18 60 -32 97 -56 294 -152 395
-193 11 -5 37 -16 58 -25 21 -9 43 -16 50 -16 7 0 24 -6 39 -14 15 -8 42 -17
60 -21 18 -4 38 -10 43 -14 6 -3 28 -11 50 -17 241 -69 379 -96 630 -125 290
-33 683 -19 980 35 181 33 408 94 510 136 11 5 31 12 45 15 14 4 39 12 55 20
26 12 55 24 130 55 11 4 83 38 160 76 156 76 276 146 439 256 32 22 190 141
202 152 6 6 38 33 70 61 69 58 270 257 335 331 24 28 55 64 69 80 26 29 142
183 170 224 8 12 26 39 41 59 21 31 136 222 171 286 25 44 78 154 107 220 18
39 36 78 41 87 6 10 10 22 10 27 0 5 5 22 12 38 100 247 173 543 213 874 21
172 16 631 -9 809 -21 152 -55 327 -85 435 -37 132 -59 203 -81 260 -4 11 -17
47 -30 80 -12 33 -26 69 -30 80 -5 11 -18 43 -30 70 -24 57 -126 259 -161 321
-32 56 -131 217 -141 229 -5 6 -44 59 -88 118 -43 59 -100 133 -127 165 -78
94 -338 352 -424 422 -45 36 -90 73 -101 83 -12 9 -24 17 -27 17 -3 0 -17 10
-31 23 -14 12 -52 40 -85 62 -33 22 -62 43 -65 46 -5 5 -130 81 -210 127 -19
11 -80 43 -135 70 -92 46 -137 67 -235 108 -19 8 -43 19 -52 24 -10 6 -23 10
-29 10 -6 0 -25 6 -42 14 -18 8 -63 24 -102 36 -38 12 -79 26 -90 30 -20 8
-52 17 -170 46 -132 33 -342 67 -510 84 -115 11 -500 11 -625 -1z m814 -1701
c8 -18 25 -62 36 -98 12 -36 28 -79 36 -97 8 -17 14 -38 14 -46 0 -8 7 -28 15
-43 8 -16 15 -36 15 -45 0 -8 4 -19 8 -25 5 -5 19 -40 31 -79 12 -38 26 -79
31 -90 5 -11 19 -49 30 -85 12 -36 25 -74 30 -85 5 -11 19 -49 30 -85 12 -36
25 -74 30 -85 15 -32 41 -108 47 -135 3 -14 9 -29 13 -35 4 -5 11 -25 15 -43
4 -18 13 -45 21 -60 8 -15 14 -35 14 -44 0 -9 4 -19 9 -22 5 -3 12 -21 15 -40
4 -20 13 -48 21 -63 8 -15 15 -36 15 -45 0 -9 4 -19 9 -22 5 -3 12 -21 15 -40
4 -20 13 -48 21 -63 8 -15 15 -34 15 -41 0 -7 4 -20 9 -30 5 -9 19 -46 31 -82
12 -36 25 -72 30 -80 4 -9 11 -30 15 -49 4 -18 13 -44 21 -59 8 -15 14 -35 14
-44 0 -9 4 -19 9 -22 5 -3 12 -21 15 -40 4 -20 13 -48 21 -63 8 -15 15 -36 15
-45 0 -9 4 -19 9 -22 5 -3 12 -21 15 -40 4 -20 13 -48 21 -63 8 -15 15 -33 15
-39 0 -7 7 -25 15 -40 8 -16 15 -36 15 -45 0 -9 7 -30 15 -45 8 -16 15 -37 15
-46 0 -9 4 -19 9 -22 5 -3 12 -23 16 -43 4 -21 10 -42 14 -48 4 -5 18 -41 30
-80 12 -38 26 -79 31 -90 5 -11 19 -49 30 -85 12 -36 25 -74 30 -85 5 -11 19
-49 30 -85 12 -36 25 -74 30 -85 5 -11 19 -49 30 -85 12 -36 25 -74 30 -85 5
-11 19 -49 30 -85 12 -36 25 -73 30 -82 5 -9 12 -35 16 -57 6 -36 4 -41 -17
-46 -13 -3 -190 -5 -392 -3 -296 2 -369 6 -376 17 -5 7 -16 38 -26 70 -10 31
-21 65 -26 76 -4 11 -17 54 -29 95 -12 41 -26 82 -30 90 -4 9 -11 31 -14 50
-4 19 -11 44 -16 55 -5 11 -18 54 -30 95 -12 41 -25 84 -30 95 -5 11 -12 30
-15 43 l-6 22 -623 0 c-643 0 -646 0 -646 -39 0 -9 -6 -28 -14 -43 -8 -15 -17
-42 -21 -60 -4 -18 -11 -37 -15 -43 -4 -5 -11 -26 -15 -45 -4 -19 -11 -39 -15
-45 -4 -5 -11 -26 -15 -45 -4 -19 -11 -41 -16 -50 -4 -8 -24 -64 -44 -125 -19
-60 -40 -119 -44 -130 -5 -11 -12 -32 -15 -47 -8 -38 -32 -40 -428 -36 -359 3
-377 6 -350 48 6 11 12 25 12 31 0 6 6 25 14 42 8 18 16 41 19 52 8 27 35 105
47 130 5 11 19 52 31 90 12 39 26 74 31 79 4 6 8 17 8 25 0 9 7 29 15 45 8 15
15 36 15 45 0 9 7 29 15 45 8 15 15 33 15 38 0 6 6 24 14 41 8 18 25 64 37
102 12 39 26 74 31 79 4 6 8 17 8 25 0 9 7 29 15 45 8 15 15 36 15 45 0 9 7
29 15 45 8 15 15 33 15 38 0 6 6 24 14 41 8 18 24 61 35 97 12 36 26 74 31 85
5 11 19 52 31 90 12 39 26 74 31 79 4 6 8 16 8 24 0 8 6 28 14 45 8 18 24 61
35 97 12 36 26 74 31 85 5 11 18 49 30 85 11 36 25 74 30 85 5 11 19 52 31 90
12 39 26 74 31 80 4 5 8 16 8 25 0 8 7 28 15 43 8 15 17 43 21 63 3 19 10 37
15 40 5 3 9 12 9 21 0 8 6 29 14 46 8 18 25 64 37 102 12 39 26 74 31 80 4 5
8 15 8 23 0 8 6 28 14 45 8 18 24 61 35 97 12 36 26 74 31 85 5 11 19 52 31
90 12 39 26 74 31 79 4 6 8 17 8 25 0 9 7 29 15 44 8 15 17 43 21 63 3 19 10
37 15 40 5 3 9 12 9 21 0 8 6 29 13 46 18 42 36 93 49 137 5 19 14 39 19 45 5
5 9 15 9 23 0 7 10 36 21 63 l21 49 419 0 418 0 15 -32z"/>
<path d="M4465 5360 c-4 -22 -10 -42 -15 -45 -4 -3 -11 -21 -15 -41 -3 -20
-10 -44 -15 -53 -4 -9 -24 -70 -45 -136 -20 -66 -41 -128 -46 -137 -5 -10 -9
-26 -9 -35 0 -10 -7 -31 -15 -47 -8 -15 -15 -35 -15 -43 0 -8 -6 -29 -14 -46
-7 -18 -23 -66 -35 -107 -12 -41 -26 -82 -30 -90 -5 -9 -12 -31 -16 -50 -4
-19 -11 -41 -15 -50 -4 -8 -24 -69 -45 -135 -20 -66 -40 -129 -45 -140 -9 -23
-30 -99 -30 -109 0 -3 189 -6 420 -6 277 0 420 3 420 10 0 6 -4 18 -9 28 -5 9
-19 51 -32 92 -12 41 -25 84 -29 95 -5 11 -18 54 -30 95 -12 41 -26 82 -30 90
-4 9 -11 31 -14 50 -4 19 -11 44 -16 55 -5 11 -18 54 -30 95 -12 41 -25 84
-30 95 -4 11 -18 54 -31 95 -12 41 -32 107 -45 145 -12 39 -32 104 -44 145
-12 41 -26 84 -31 95 -4 11 -11 31 -14 45 -11 43 -27 80 -35 80 -5 0 -11 -18
-15 -40z"/>
</g>
</svg>
