<svg id="Layer_1" data-name="Layer 1" xmlns="http://www.w3.org/2000/svg" viewBox="0 0 210 210"><defs><style>.cls-1,.cls-10{fill:#eee;}.cls-1{stroke:#fff;stroke-width:9.76px;}.cls-2{fill:none;stroke:#f2eded;stroke-width:2.44px;}.cls-3{fill:#0a0080;}.cls-4{fill:#0a84f2;}.cls-5{fill:#005eb8;}.cls-11,.cls-6{fill:#212529;}.cls-7{fill:#212529;}.cls-8{fill:#212529;}.cls-9{fill:#fff;}.cls-11,.cls-9{fill-rule:evenodd;}</style></defs><title>-</title><g id="Rectangle-290"><path id="path-1" class="cls-1" d="M102.6,3h4.9a97.6,97.6,0,0,1,97.6,97.6v4.9a97.6,97.6,0,0,1-97.6,97.6h-4.9A97.75,97.75,0,0,1,5,105.39v-4.9A97.58,97.58,0,0,1,102.6,3Z"/><path id="path-1-2" data-name="path-1" class="cls-2" d="M102.6,3h4.9a97.6,97.6,0,0,1,97.6,97.6v4.9a97.6,97.6,0,0,1-97.6,97.6h-4.9A97.75,97.75,0,0,1,5,105.39v-4.9A97.58,97.58,0,0,1,102.6,3Z"/></g><path class="cls-3" d="M103.9,70.64h-37a8.28,8.28,0,0,0-8.22,7.88v69.89a8.34,8.34,0,0,0,8.22,8.22h37a8.34,8.34,0,0,0,8.22-8.22V78.52a8,8,0,0,0-8.22-7.88Z"/><path class="cls-4" d="M85.4,144.3a4.11,4.11,0,1,1,0,8.22,4.43,4.43,0,0,1-4.11-4.12A4.16,4.16,0,0,1,85.4,144.3Z"/><rect class="cls-5" x="65.19" y="77.82" width="40.42" height="62.48"/><rect class="cls-6" x="72.5" y="99.02" width="26.92" height="26.92" rx="4.49" ry="4.49"/><path class="cls-7" d="M153.52,140a17.85,17.85,0,0,1-5.2,12.62l-5.23,5.23a14.76,14.76,0,0,1-10.46,4.32H94.4a3,3,0,0,1-3-3,6.84,6.84,0,0,1,5.85-6.74l14.84-2.13L87.75,126a5.23,5.23,0,0,1,7.39-7.39l13.3,13.3a5.23,5.23,0,0,1,7.39-7.39l1.48,1.48a5.23,5.23,0,0,1,7.39-7.39l1.48,1.48a5.24,5.24,0,0,1-1.54-3.61v0a5.16,5.16,0,0,1,1.54-3.75,5.23,5.23,0,0,1,7.39,0l14.75,14.75A17.78,17.78,0,0,1,153.52,140Z"/><path class="cls-8" d="M115.09,137.07a1.6,1.6,0,0,1-.41,1.06l-6.24-6.24a5.26,5.26,0,0,1-1.54-3.64l7.77,7.77A1.59,1.59,0,0,1,115.09,137.07Z"/><path class="cls-8" d="M122.48,129.68a1.6,1.6,0,0,1-.41,1.06L117.31,126a5.26,5.26,0,0,1-1.54-3.64l6.3,6.3A1.59,1.59,0,0,1,122.48,129.68Z"/><path class="cls-8" d="M127.24,121.14l-1.06-1.06a5.24,5.24,0,0,1-1.54-3.61l2.6,2.57A1.51,1.51,0,0,1,127.24,121.14Z"/><polygon class="cls-9" points="151.02 94.6 115.15 94.6 94.34 108.33 97.19 94.6 88.53 94.6 88.53 59.2 151.02 59.2 151.02 94.6"/><rect class="cls-10" x="96.92" y="65.43" width="46.01" height="9.09"/><rect class="cls-10" x="96.92" y="78.84" width="18.17" height="9.09"/><rect class="cls-10" x="118.64" y="78.84" width="24.28" height="9.09"/><path class="cls-11" d="M88.53,59.44h62.8V53.77c0-1.63-1.89-3-4.21-3H92.74c-2.32,0-4.21,1.34-4.21,3Z"/></svg>