<svg id="Layer_1" data-name="Layer 1" xmlns="http://www.w3.org/2000/svg" viewBox="0 0 210 210"><defs><style>.cls-1,.cls-5{fill:#eee;}.cls-1{stroke:#fff;stroke-width:9.76px;}.cls-2{fill:none;stroke:#f2eded;stroke-width:2.44px;}.cls-3{fill:#005eb8;}.cls-4{fill:#fff;}.cls-6{fill:#0a0080;}.cls-7{fill:#0a84f2;}.cls-8{fill:#212529;}</style></defs><title>-</title><g id="Rectangle-290"><path id="path-1" class="cls-1" d="M102.6,5h4.9a97.6,97.6,0,0,1,97.6,97.6v4.9a97.6,97.6,0,0,1-97.6,97.6h-4.9A97.75,97.75,0,0,1,5,107.4v-4.9A97.58,97.58,0,0,1,102.6,5Z"/><path id="path-1-2" data-name="path-1" class="cls-2" d="M102.6,5h4.9a97.6,97.6,0,0,1,97.6,97.6v4.9a97.6,97.6,0,0,1-97.6,97.6h-4.9A97.75,97.75,0,0,1,5,107.4v-4.9A97.58,97.58,0,0,1,102.6,5Z"/></g><path class="cls-3" d="M60.66,69.69h90.8a3.84,3.84,0,0,1,3.84,3.84v61.86a0,0,0,0,1,0,0H56.82a0,0,0,0,1,0,0V73.53A3.84,3.84,0,0,1,60.66,69.69Z"/><rect class="cls-4" x="77.64" y="57.73" width="56.84" height="89.62" transform="translate(208.59 -3.52) rotate(90)"/><rect class="cls-5" x="101.55" y="33.82" width="9.02" height="89.62" transform="translate(184.68 -27.43) rotate(90)"/><path class="cls-6" d="M41.61,135.39H170.5a0,0,0,0,1,0,0v1.77a5.31,5.31,0,0,1-5.31,5.31H46.93a5.31,5.31,0,0,1-5.31-5.31v-1.77A0,0,0,0,1,41.61,135.39Z"/><path class="cls-4" d="M93.14,135.39H119a0,0,0,0,1,0,0v1.86a1.68,1.68,0,0,1-1.68,1.68H94.82a1.68,1.68,0,0,1-1.68-1.68v-1.86A0,0,0,0,1,93.14,135.39Z"/><rect class="cls-5" x="121.3" y="90.51" width="25.9" height="33.3"/><rect class="cls-5" x="96.21" y="90.89" width="20.58" height="5.37"/><rect class="cls-5" x="96.21" y="99.18" width="20.58" height="5.37"/><rect class="cls-5" x="96.21" y="110.75" width="20.58" height="5.37"/><rect class="cls-5" x="96.21" y="119.03" width="20.58" height="5.37"/><rect class="cls-5" x="66.4" y="110.75" width="25.9" height="13.65"/><rect class="cls-5" x="66.4" y="90.89" width="25.9" height="13.65"/><circle class="cls-7" cx="138.17" cy="78.88" r="21.37"/><circle class="cls-4" cx="138.17" cy="72.01" r="6.56"/><path class="cls-4" d="M150.25,89.09a12.09,12.09,0,1,0-24.17,0Z"/><circle class="cls-8" cx="159.54" cy="65.42" r="8.98"/><rect class="cls-8" x="40.5" y="113.34" width="53.7" height="40.8" rx="5.37" ry="5.37"/><polygon class="cls-4" points="79.73 133.74 69.5 139.65 59.27 145.56 59.27 133.74 59.27 121.93 69.5 127.84 79.73 133.74"/></svg>